Hanif_Medium_2_5_grf.mot
version=1
nRows=26
nColumns=19
inDegrees=yes
endheader
time	right_ground_force_vx	right_ground_force_vy	right_ground_force_vz	right_ground_force_px	right_ground_force_py	right_ground_force_pz	right_ground_torque_x	right_ground_torque_y	right_ground_torque_z	left_ground_force_vx	left_ground_force_vy	left_ground_force_vz	left_ground_force_px	left_ground_force_py	left_ground_force_pz	left_ground_torque_x	left_ground_torque_y	left_ground_torque_z
2.300000	4.183680	253.325000	57.838300	0.200959	0.000000	-1.451810	-13.706000	1.427200	0.529595	-1.107820	289.451000	-61.286500	0.195821	0.000000	-0.963251	17.447600	-2.195540	-0.784846
2.305000	4.858590	254.795000	58.183200	0.200325	0.000000	-1.451160	-13.949700	1.533920	0.376505	-1.369560	289.246000	-61.189200	0.195697	0.000000	-0.964066	17.672600	-2.208100	-0.815400
2.310000	4.764630	255.318000	58.189100	0.199128	0.000000	-1.451770	-13.822300	1.604170	0.072426	-1.605590	289.623000	-61.629300	0.196298	0.000000	-0.964306	17.766700	-2.138780	-0.644645
2.315000	4.908720	254.794000	58.271300	0.198944	0.000000	-1.452040	-13.723500	1.575290	0.016429	-2.047200	289.645000	-61.117600	0.196042	0.000000	-0.964299	17.769000	-2.124480	-0.722709
2.320000	5.256800	255.691000	58.174900	0.198728	0.000000	-1.451850	-13.821600	1.575860	-0.048290	-2.496130	289.635000	-61.057200	0.196658	0.000000	-0.963848	17.641000	-2.071280	-0.542412
2.325000	5.212620	256.800000	58.543500	0.197898	0.000000	-1.452710	-13.657700	1.767450	-0.228298	-2.436900	289.279000	-60.605200	0.196510	0.000000	-0.964206	17.722900	-2.117160	-0.579113
2.330000	5.279950	257.188000	59.140900	0.197548	0.000000	-1.452000	-13.861500	1.768320	-0.322873	-2.170200	288.753000	-60.704800	0.196310	0.000000	-0.963818	17.576200	-2.075920	-0.648358
2.335000	5.508170	256.628000	59.262500	0.197451	0.000000	-1.451860	-13.865100	1.821860	-0.337112	-2.176260	288.904000	-60.845700	0.196061	0.000000	-0.963812	17.584200	-2.149350	-0.708063
2.340000	5.040830	256.989000	58.826200	0.197086	0.000000	-1.452010	-13.848600	1.823750	-0.432960	-1.779290	289.072000	-61.044100	0.195575	0.000000	-0.963803	17.588900	-2.190820	-0.850738
2.345000	5.042080	257.754000	58.821800	0.197398	0.000000	-1.452760	-13.693800	1.883890	-0.337021	-0.926375	289.451000	-60.937200	0.194979	0.000000	-0.963118	17.407900	-2.320950	-1.017320
2.350000	4.572930	257.387000	58.567400	0.197066	0.000000	-1.452440	-13.759200	1.834030	-0.432569	-0.978597	289.252000	-61.171700	0.194416	0.000000	-0.963208	17.422200	-2.348110	-1.178350
2.355000	4.450560	256.301000	58.477500	0.197130	0.000000	-1.453630	-13.396700	1.878460	-0.398375	-0.352543	288.666000	-61.323400	0.193987	0.000000	-0.963086	17.347200	-2.336140	-1.313190
2.360000	4.312800	255.547000	58.343400	0.196472	0.000000	-1.452900	-13.547500	1.808190	-0.588108	-0.131488	289.209000	-61.290000	0.193674	0.000000	-0.962446	17.193400	-2.489010	-1.382540
2.365000	3.809390	255.370000	58.267700	0.197341	0.000000	-1.453160	-13.470800	1.823390	-0.344192	-0.628624	288.878000	-61.185900	0.192920	0.000000	-0.961970	17.039400	-2.394580	-1.622020
2.370000	3.583780	254.631000	57.997700	0.197119	0.000000	-1.453170	-13.431900	1.753260	-0.415532	-0.853434	288.304000	-60.999000	0.192403	0.000000	-0.962420	17.137100	-2.481090	-1.752670
2.375000	3.904530	254.453000	58.084000	0.197036	0.000000	-1.452130	-13.684200	1.917340	-0.403741	-1.256080	288.471000	-60.897500	0.192609	0.000000	-0.962099	17.057400	-2.460340	-1.692130
2.380000	3.813510	255.412000	58.035200	0.197103	0.000000	-1.453110	-13.486100	1.847740	-0.404241	-1.573900	288.094000	-60.937800	0.192132	0.000000	-0.962067	17.028300	-2.483490	-1.823110
2.385000	4.010460	252.606000	58.163500	0.196649	0.000000	-1.453410	-13.263200	1.809030	-0.523509	-2.083070	287.028000	-60.920600	0.191801	0.000000	-0.961832	16.901800	-2.507040	-1.901330
2.390000	4.606950	251.261000	58.184400	0.196935	0.000000	-1.452400	-13.442700	1.840880	-0.442433	-1.368890	287.370000	-60.946800	0.191319	0.000000	-0.961695	16.877200	-2.538160	-2.051500
2.395000	4.345760	254.030000	57.928200	0.196136	0.000000	-1.451930	-13.712300	1.851870	-0.663935	-1.314420	286.661000	-60.999800	0.191003	0.000000	-0.961422	16.757300	-2.661770	-2.113030
2.400000	4.903110	251.738000	57.767400	0.197058	0.000000	-1.451970	-13.573600	1.888600	-0.407092	-0.699933	286.617000	-61.335900	0.191130	0.000000	-0.960954	16.615800	-2.674670	-2.077520
2.405000	4.682890	252.310000	57.955500	0.196055	0.000000	-1.451050	-13.837600	1.976450	-0.652984	-0.737924	285.915000	-61.382900	0.190800	0.000000	-0.960735	16.513000	-2.769720	-2.147740
2.410000	4.795170	253.582000	57.829900	0.196431	0.000000	-1.451830	-13.706100	2.026170	-0.549173	-0.797308	284.991000	-61.253100	0.189813	0.000000	-0.960504	16.394300	-2.785230	-2.428760
2.415000	5.149850	254.724000	57.731200	0.195926	0.000000	-1.451890	-13.751200	2.030470	-0.693897	-0.460682	285.704000	-61.709000	0.189949	0.000000	-0.960231	16.354700	-2.791480	-2.396940
2.420000	4.644270	253.781000	57.422300	0.196461	0.000000	-1.451140	-13.892300	2.064720	-0.534499	-0.255948	284.239000	-61.492100	0.189281	0.000000	-0.960682	16.397400	-2.864730	-2.566520
2.425000	4.144140	255.869000	57.585700	0.195654	0.000000	-1.451860	-13.826300	2.070520	-0.752902	0.283662	283.645000	-61.733600	0.189356	0.000000	-0.959785	16.104600	-2.879110	-2.538960
